<svg width="98" height="98" viewBox="0 0 98 98" xmlns="http://www.w3.org/2000/svg" xmlns:xlink="http://www.w3.org/1999/xlink"><defs><path id="a" d="M0 .082h75.537v36.255H0z"/></defs><g fill="none" fill-rule="evenodd"><circle cx="49" cy="49" r="49"/><g transform="translate(11.388 45.747)"><mask id="b" fill="#fff"><use xlink:href="#a"/></mask><g/><path d="M37.65 14.255c17.124 0 31.77-5.87 37.617-14.173.186 1.283.27 2.598.27 3.93 0 17.856-16.904 32.325-37.769 32.325C16.904 36.337 0 21.867 0 4.012 0 2.795.084 1.595.236.41 6.253 8.533 20.73 14.255 37.65 14.255" fill="#E2534D" mask="url(#b)"/></g><path d="M48.108 59.722c15.756 0 29.413-4.968 36.115-12.222.017-.398.034-.778.034-1.176-.017-16.876-16.01-29.926-35.742-29.926-21.544 0-35.726 13.05-35.726 29.926 0 .696.034 1.391.085 2.07 6.972 6.757 20.139 11.328 35.234 11.328" fill="#FAEBC1"/><path d="M17.76 31.491c2.61-5.82 10.726-17.121 32.58-16.463 24.211.708 31.86 17.002 32.494 20.562.502 2.783-8.45-3.306-11.21 1.72-2.779 5.027 1.572 7.288-.285 10.813-.87 1.653-4.05 2.058-5.84-.793-1.289-2.04.585-3.424-.787-5.6-1.004-1.602-3.313-3.323-5.79-3.576-4.25-.422-8.215 3.93-7.362 8.62.853 4.689-.519 10.762-5.137 10.104-4.619-.658-3.615-5.685-1.891-11.47 1.59-5.331-6.66-12.01-11.914-11.184-6.058.961-4.903 6.865-9.689 7.894-4.283.911-7.463-5.516-5.17-10.627" fill="#DA822C"/></g></svg>